<svg width="34" height="48" viewBox="0 0 34 48" fill="none" xmlns="http://www.w3.org/2000/svg">
<path fill-rule="evenodd" clip-rule="evenodd" d="M0.630615 16.6572C0.630615 7.4725 8.10311 0 17.2878 0C26.4729 0 33.9451 7.4725 33.9451 16.6572C33.9451 27.6337 17.3042 47.9213 17.3042 47.9213C17.3042 47.9213 0.630615 28.2015 0.630615 16.6572ZM17.2878 23.6129C19.108 23.6129 20.9279 22.92 22.3137 21.5345C25.085 18.7634 25.085 14.2544 22.3137 11.4831C20.9711 10.1409 19.1864 9.40117 17.2878 9.40117C15.3893 9.40117 13.6042 10.1406 12.2623 11.4831C9.49097 14.2544 9.49097 18.7634 12.2623 21.5345C13.6475 22.92 15.468 23.6129 17.2878 23.6129Z" fill="#1A67D2"/>
</svg>
